<svg xmlns="http://www.w3.org/2000/svg" width="20" height="20" viewBox="0 0 20 20">
  <g id="Group_4513" data-name="Group 4513" transform="translate(-2 -2)">
    <g id="Group_4512" data-name="Group 4512">
      <path id="Path_5376" data-name="Path 5376" d="M20,2H4A2.074,2.074,0,0,0,2,4V7.01A2.02,2.02,0,0,0,3,8.7V20a2.149,2.149,0,0,0,2,2H19a2.149,2.149,0,0,0,2-2V8.7a2.02,2.02,0,0,0,1-1.69V4A2.074,2.074,0,0,0,20,2ZM19,20H5V9H19ZM20,7H4V4H20Z" fill="#fff"/>
      <rect id="Rectangle_1972" data-name="Rectangle 1972" width="6" height="2" transform="translate(9 12)" fill="#34acc4"/>
    </g>
  </g>
</svg>
