<svg xmlns="http://www.w3.org/2000/svg" width="18.667" height="18.667" viewBox="0 0 18.667 18.667">
  <path id="Path_29" data-name="Path 29" d="M13.333,6.217a2.45,2.45,0,1,1-2.45,2.45,2.45,2.45,0,0,1,2.45-2.45m0,10.5c3.465,0,7.117,1.7,7.117,2.45V20.45H6.217V19.167c0-.747,3.652-2.45,7.117-2.45M13.333,4A4.667,4.667,0,1,0,18,8.667,4.665,4.665,0,0,0,13.333,4Zm0,10.5C10.218,14.5,4,16.063,4,19.167v3.5H22.667v-3.5C22.667,16.063,16.448,14.5,13.333,14.5Z" transform="translate(-4 -4)" fill="#fff"/>
</svg>
