<svg xmlns="http://www.w3.org/2000/svg" width="20.004" height="19.995" viewBox="0 0 20.004 19.995">
  <g id="Group_4510" data-name="Group 4510" transform="translate(-2 -2)">
    <g id="Group_4509" data-name="Group 4509">
      <path id="Path_5375" data-name="Path 5375" d="M21.41,11.41,12.58,2.58A2,2,0,0,0,11.17,2H4A2.006,2.006,0,0,0,2,4v7.17a1.966,1.966,0,0,0,.59,1.41l8.83,8.83a2,2,0,0,0,2.83,0l7.17-7.17A2,2,0,0,0,21.41,11.41ZM12.83,20,4,11.17V4h7.17L20,12.83Z" fill="#fff"/>
      <circle id="Ellipse_173" data-name="Ellipse 173" cx="1.5" cy="1.5" r="1.5" transform="translate(5 5)" fill="#fff"/>
    </g>
  </g>
</svg>
